<svg xmlns="http://www.w3.org/2000/svg" viewBox="0 0 256 256"><g fill="none" fill-rule="evenodd"><circle cx="128" cy="128" r="128" fill="#FFF"/><g fill="#000" fill-rule="nonzero"><path d="M183.606 59.117c1.189-2.992 2.627-4.849 3.954-5.985 1.853-1.551 3.512-1.8 4.341-1.8.332 0 .526.055.553.055a.741.741 0 0 0 .83-.555v-.526c-.083-.36-.47-.61-.83-.554-.083.027-2.323.415-4.894-1.746-3.29-2.826-7.162-9.975-7.162-28.013v-.139c0-.693 0-1.413.028-2.161a.703.703 0 0 0-.692-.693h-.055a.703.703 0 0 0-.691.693c.027.748.027 1.468.027 2.161v.139c0 18.038-3.87 25.187-7.19 28.013-1.133.97-2.211 1.44-3.096 1.635 0 0 0 .028-.028 0-12.36-6.262-26.38-9.809-41.173-9.809C77.035 39.832 36 80.979 36 131.52c0 3.214.166 6.401.498 9.532 1.88 18.205 9.097 34.83 20.075 48.296a89.763 89.763 0 0 0 11.53 11.86c-.746 1.164-1.52 2.022-2.267 2.66-2.544 2.161-4.811 1.773-4.894 1.745-.36-.055-.747.167-.802.555a.47.47 0 0 0 0 .277.385.385 0 0 0 0 .25c.055.36.415.609.802.553.083-.027 2.35-.415 4.894 1.746 3.319 2.826 7.162 9.975 7.162 28.013v2.3c0 .36.304.693.664.693h.083c.36 0 .663-.333.663-.693 0-.748-.027-1.468-.027-2.161v-.139c.027-16.015 3.041-23.441 6.056-26.877 13.77 8.313 29.864 13.078 47.063 13.078 24.97 0 47.644-10.058 64.152-26.35C208.52 180.204 219 157.067 219 131.52c0-29.371-13.881-55.583-35.394-72.403Zm32.629 72.403c0 2.383-.083 4.738-.277 7.066l-.36.222-.552-8.285 1.161-.638c.028.555.028 1.081.028 1.635Zm-.055-3.214-1.328.748-1.465-8.23 1.686-.692.388-.277c.387 2.77.608 5.597.719 8.451Zm-3.678 3.602 1.216-.665.554 8.451-1.383 1.33v.056l-.055.027.055-.083-.387-9.116Zm-50.244 75.451h-.193l-.055.056h-.028s-.055.027-.083.027l-4.176.748 2.02-3.796 7.852-1.58-3.429 4.185h-.027l-.885.194-.47.083-.526.083Zm-87.767-26.822 4.038.665 2.018 6.872-5.558-1.025a83.705 83.705 0 0 1-.498-6.512Zm-.746-7.675h-.083c-.36 0-.664.332-.664.692v.832l-.553-2.937s.083.027.11.027l7.024.72 1.825 8.064-2.24-.36h-.248l-4.48-.748a124.787 124.787 0 0 1-.055-3.298v-.138c0-.693.027-1.413.027-2.162 0-.36-.304-.692-.663-.692Zm-4.01 6.9 3.153.526a71.354 71.354 0 0 1-.388 5.874l-2.765-6.4Zm2.627 7.453s.028.277-.027.415c0 .028-.028.028-.028.056.028-.139.055-.305.055-.471ZM128.91 52.19l.415 4.184h-10.84l1.66-3.851 8.765-.333Zm-8.461-1.08 1.244-2.383h7.55l-.277 2.078-8.517.304Zm55.525 8.368a15 15 0 0 1 .525 1.468l-1.99.25-4.895-4.517h.083c.055 0 .055-.028.11-.028h.056l1.797-.332 4.314 3.186v-.027Zm-2.987-3.907.415-.139h.028l.746.499h.028c.194.305.36.61.525.942l-1.742-1.302Zm3.042 7.065 1.355 1.524c.36 1.441.664 3.02.885 4.794-.138 0-.221.11-.277.222l-5.447-6.152 3.484-.388Zm2.876 13.494-2.517.084-3.456-5.653 4.673-.11a.59.59 0 0 0 .47-.222l.443.581c.166 1.663.304 3.409.387 5.32Zm1.493 5.154v-.138c0-1.303.028-2.55.083-3.713l2.544-.083h.028l4.12 6.622-6.443 1.358-.609-1.33a.64.64 0 0 0 .305-.554c-.028-.749-.028-1.469-.028-2.162Zm12.803 93.462s0 .028-.028.028h-.166c-.027 0-.055.027-.055.027l-5.199 1.801 1.853-7.703 5.31-1.607-1.743 7.426h.028v.028Zm-4.424-90.774-4.148-6.678 2.599-.859 4.397 6.54-2.766 1.108-.082-.111Zm3.18 1.552 3.732 7.065-3.345.555s-.194.027-.277.055l-1.106.166-3.816-7.093 4.811-.748Zm13.245 15.24-2.544.775-4.535-7.98 2.793-.582 4.286 7.787ZM60.638 158.093v-.25l-.58-8.312 1.99.443.442.111s.056 0 .083.028h.166s.028.055.056.055h.083l.442.111.36.083 2.184.416s-.028.083 0 .11h-.028s-.027.14-.027.195c0 .277.193.526.442.637v7.648l-2.931-.665h-.166l-2.46-.555h-.056v-.055ZM201.275 101.9l-4.12 1.053-3.816-8.562 3.346-.555 4.59 8.064Zm-7.438 13.882s.11-.028.166-.028l.58-.139 2.461-.526 1.991 9.532-4.645.748h-.194l-.83.138-1.575-9.337 2.046-.388Zm5.475 10.224 1.908 8.7-4.729.97h-.027l-1.328-9.032 4.176-.638Zm-19.301 14.187s.193-.055.276-.11l.775-.112v9.588l-6.056.692-.387-9.199 5.392-.859Zm-.58-10.585 1.188-.138 4.148-.499h.249l.249-.055.415-.056h.138l1.023-.138.691 9.06-5.226.665-.498.056h-.11l-1.77.222-.498-9.117Zm2.239 21.253h.166l2.406-.333-.36 8.701-.746.139h-.111l-7.383 1.468-.58-9.227 6.608-.748Zm.774-1.496v-9.532l6.996-.748.166 9.338-3.844.526-.884.11-2.434.306Zm6.47-11.61h-.027l-.691-9.394 4.673-1.357h.11l.775-.139 1.382 9.227-5.115 1.552h-.028l-1.078.11Zm3.098-11.943-5.088 1.469s-.055.028-.083.028h-.055l-.802.083-1.88-9.754 3.013-.582s.083-.027.139-.027l3.18-.61 1.576 9.366v.027Zm-8.655-9.365h-.25l-4.009.388-1.382-9.754 2.986-.222h.055l3.568-.138 1.963 9.116-2.931.61Zm-5.503 1.912.719-.084 4.148-.387 1.88 9.698v.055l-3.318.333-2.682.332-1.355.139-1.023-9.92 1.631-.166Zm-2.433-1.164s-.028 0-.056.028l-5.89.581-1.05-9.892 7.549-.692h.332l1.41 9.753-2.295.222Zm-11.559 34.663-.608-9.67 5.586-.526.525-.056.664-.055h.027l3.18-.305.387 9.421-9.76 1.191Zm9.844.194.58 9.033-6.414.86.22-9.2 5.614-.693Zm-55.995 31.45h-.276l-7.024-.388-.885-8.119 1.134.056c.055.277.332.47.608.47l7.826.278.802 7.814-2.185-.111Zm2.931 1.524h.028l6.332.11.36 6.18h-7.632l-1.272-6.401 2.184.11Zm-28.758-12.774-1.3-8.285 2.932.333h.083l6.194.36.83 8.507-2.351-.111h-.11s-.056 0-.084.027l-6.194-.83ZM61.44 128.39h.193l2.489.554h.028l.414.083.526.111.497.111 2.876.61-1.023 9.033-4.065-.471s-.193-.167-.331-.194l-2.074-.527.47-9.31Zm-.498-1.552h-.028l-1.88-.443c.166-1.33.636-4.683 1.383-8.95l5.53.831a308.113 308.113 0 0 0-1.549 9.31v.056l-2.46-.582-.996-.222Zm4.922 1.053h-.083c.194-1.468.719-4.96 1.52-9.448l7.163.748c-.498 4.849-.664 8.423-.72 9.587l-7.88-.887Zm2.931 11.167 1.079-9.31 3.76.416 2.904.221-.222 9.81-5.005-.749-2.516-.36v-.028Zm6.332-10.197c.028-1.08.222-4.655.72-9.56l7.714.777c-.774 4.987-1.05 8.063-1.161 9.365l-5.116-.416h-.027l-2.13-.166Zm.858-10.945a150.41 150.41 0 0 1 1.3-9.476c2.986.222 5.806.36 8.295.499a232.21 232.21 0 0 0-1.798 9.78l-7.797-.803Zm36.86 2.771-.664 10.363-6.968-.166h-1.687l1.714-9.754 7.605-.443Zm-7.466-.942.525-10.446h8.323v9.92l-8.848.526Zm.442 12.552 9.319.194v10.058l-5.337-.138-4.424-.194.442-9.92Zm7.77-1.413.664-10.058 9.014.304v9.56l-9.678.194Zm1.936-22.61a.656.656 0 0 0-.609-.36h-6.608l1.659-8.784 6.387.083-.83 9.06Zm-6.72-10.557-8.793-.111 1.825-8.84 4.397.25s.304.194.497.194h3.678l-1.604 8.507Zm-.249 1.385-1.659 8.811h-1.659l-8.6.084 1.245-9.006h1.3l9.373.111Zm-4.037 10.197-.525 10.474-9.54-.499 1.106-9.892h.055l8.904-.083Zm-9.263-1.386h-.332c-.332 0-3.29-.083-7.66-.304.581-2.688 1.217-5.625 2.02-8.812 3.317.111 5.944.166 7.189.194l-1.217 8.922Zm-1.078 1.358-1.107 9.948-7.908-.416c.442-2.743 1.05-6.013 1.825-9.809 3.401.166 6 .25 7.19.277Zm.11 11.388 9.54.471-1.687 9.699-6.913-.167h-.11l-1.964-.305 1.134-9.698Zm1.521 11.416 8.627.194-.442 9.892-4.535-.194c-.11-.166-.332-.277-.553-.304l-3.097-.083v-9.505Zm3.788 11.278 9.485.416v9.642l-5.171-.222s-.083 0-.11.028c-.028-.028-.056-.028-.084-.028l-4.12-.304v-9.532Zm10.149 11.471h.027l3.18.056.553 9.005-8.6-.36-.497-8.922 5.337.221Zm3.594-1.302-2.876-.055v-9.643l4.784.11 4.037.112v9.587h-.027l-5.918-.111Zm3.18-10.945v-9.753h10.619l-.277 9.864-6.47.138s-.25-.166-.415-.166l-3.457-.083Zm8.102-11.139v-10.28h9.872l.498 10.28h-10.397.027Zm3.9 1.386h7.216c.194 0 .387-.056.498-.194a.382.382 0 0 0 .083-.111h1.355l-.221 10.141h-9.18l.248-9.836Zm7.852-1.69-.47-9.976h2.046l7.162-.332.553 9.975h-7.272a.674.674 0 0 0-.58.332h-1.439Zm12.25-23.886-7.991.471-.166-9.005 2.93-.11h.194l6.803-.61.885 9.254h-2.655Zm3.457 1.386 5.17-.277 1.77 10.307-3.097.194h-.055l-5.475.333-.968-10.557h2.655Zm-4.038.028.968 10.584-3.207.167h-.056l-7.19.332-.663-10.502 10.148-.581Zm-8.987 23.69v-.166h9.513l.802 9.92v.083h-.111l-7.3.305h-.055l-3.097.138.248-10.28Zm8.02-1.579-.581-10.003 3.263-.166h.027l5.475-.305.636 9.92-8.82.554Zm9.54.804h.055l2.046-.139.332 9.643-8.351.803-.747-9.892 6.664-.415Zm3.566 10.778s.028 0 .056-.027c0 0 .11 0 .166-.028l1.438-.11.608 9.78-5.835.471h-.083l-2.626.111-.083-9.448s0-.084-.028-.139l6.36-.61h.027Zm.25-1.44-.332-9.56 6.83-.416h.165l1.66-.11.497 9.365-.525.056-8.296.665Zm-1.08-10.918h-.027l-2.046.139-.636-9.92 3.18-.194s.055 0 .055-.028h.139l5.032-.443 1.106 10.058-6.802.388Zm6.389-11.86h-.139l-5.198.444-1.77-10.307 2.959-.167h.027l5.42-.138 1.05 9.947-2.35.222Zm-13.08-10.916-.885-9.31 6.996-.472 1.991 9.338-8.102.444Zm-1.687-10.64-6.885.581-.525-7.98 8.82-.47h.222l1.493 7.591-3.125.278Zm-10.148-8.784V80.12h8.6l2.019 7.204-10.619.47Zm1.327 1.33.554 8.119-2.572.11s-.249-.138-.415-.138l-6.387.166-.222-8.174h7.577l1.465-.055v-.028Zm-3.207 9.504h.11v.055l.194 8.923-8.24.11v-8.866l7.936-.222Zm-2.461 10.39.691 10.752h-9.43v-10.64h3.043l5.696-.111Zm-6.858-1.302h-2.627l-10.065.167.802-8.7 11.89-.306v8.84Zm-11.06-19.894h-10.702l1.549-7.482h4.977l4.507.056-.332 7.426Zm-4.784-8.84h-4.95l-4.314-.304 2.13-6.013 8.212.166-1.078 6.151Zm-5.78 1.303-1.52 7.343-4.867-.25-3.76-.194 1.548-7.426 8.6.527Zm-9.954 8.285 2.405.083v.055l-1.852 8.895h-1.327s-3.208-.028-7.66-.167c.664-2.854 1.438-5.874 2.295-9.116l5.06.194 1.079.056Zm-9.9 8.811c-2.571-.083-5.53-.194-8.544-.36.774-3.048 1.687-6.04 2.738-8.867l8.157.139a984.835 984.835 0 0 0-2.35 9.088Zm-.331 1.386c-.747 3.186-1.41 6.095-1.964 8.783-2.488-.11-5.337-.277-8.35-.499.47-2.826 1.05-5.735 1.77-8.645 2.986.167 5.944.277 8.544.36Zm-2.876 21.418 7.964.388-1.134 9.615-5.42-.443h-.249l-2.323-.194c.083-1.275.36-4.35 1.162-9.366Zm1.88 11 5.475.444h.11l2.02.305v9.615l-5.503-.139h-.139l-2.82-.36.857-9.864Zm2.71 11.61 8.683.25v9.726l-8.683-.97v-9.005Zm9.291 11.417h.138l4.037.305.526 8.922-3.18-.167-6.111-.332-.802-9.116 5.392.388Zm2.544 20.338h.083l6.664.332.913 8.12-2.987-.14h-5.696l-1.327-8.423 2.35.11Zm.636-1.33-.802-8.507 2.876.167h.193l5.973 1.08.304 7.676-8.544-.416Zm9.955.914-.332-8.09h10.286l-.276 8.423-9.678-.333Zm8.71-20.449v-9.504l6.609-.138h3.124v9.56l-5.06.193h-.138l-4.535-.138v.027Zm11.918 12.358.276 7.953-2.46.11h-.084l-1.3.084h-.359l-.553.055-4.59.194-.193-8.396h9.263Zm-6.72-1.385v-5.708l.166-3.796 8.545-.305v9.809h-8.71Zm9.43 1.385 7.936-.443v8.091l-8.987.25-.249-7.898h1.3Zm.663-1.44v-9.81l10.121-.47-.11 9.698-2.074.138-7.937.443Zm6.913-11.527-.22-9.227 7.493-.305c.166-.028.36-.111.47-.25l1.853-.193.083 9.531-5.78.277-3.899.167Zm4.59 1.191 5.227-.25 1.134-.055 2.101-.11v9.448l-8.572.61.11-9.643Zm7.91 10.446 1.63-.11s.139-.028.222-.056h.027l6.996-.748-.636 7.98s-.276-.11-.414-.083l-8.434 1.164.608-8.147Zm1.935-1.58v-9.365l5.862-.47h.332l.525-.084 2.655-.194-.194 9.089v.055l-.995.111h-.277l-.249.055h-.11l-7.55.804Zm10.23-33.665-1.105-10.03 2.433-.222h.055l5.918-.61 1.023 9.975-8.323.887Zm.111-22.915h-.055l-5.42.138-1.99-9.338h-.775l.774-.055v.055l9.485-.166 1.493 9.033-3.512.333Zm-7.99-10.557h-.388l-.055.055-3.706.222-1.493-7.648 8.02-.416 2.322 7.316-4.7.47Zm-6.444-8.7h-.332l-2.046-7.26 8.821-.943 1.991 7.759-8.434.443Zm-3.263-8.563-1.852-7.204 2.322-.083h.028l5.199-.139 3.428 6.456-9.125.97Zm-1.41 0h-10.176l-1.134-6.65h9.596l1.714 6.65Zm-10.757 1.386h1.66v7.703h-9.623v-7.51l7.963-.193Zm-6.055 9.088.22 8.091-9.456.277-.304-8.368h9.54Zm-3.29-1.663-8.49.25.332-7.426 8.157-.222v7.398Zm-2.738-8.7-5.807.166h-4.701l1.05-6.151 9.458-.194v6.179Zm-10.591-7.398-8.572-.167 1.548-7.148 8.213.554-1.189 6.76Zm-.968-8.729h-9.401l2.156-4.71 8.407-.25-1.162 4.96Zm-7.494 1.386-1.52 7.121-8.545-.471 2.378-6.65h7.687Zm-1.465 8.506-2.019 5.736H94.07l2.046-6.234 9.07.498Zm-7.162 7.122-1.576 7.37-4.563-.166h-.857l-3.788-.083 2.848-7.232 2.959.11h4.977Zm-12.25 7.093-3.899-.055-3.65-.111 2.987-7.288 7.383.222-2.82 7.232Zm-4.894 1.302c-1.05 2.827-1.936 5.82-2.682 8.84-2.047-.111-4.093-.222-6.056-.388.885-3.187 1.88-6.152 2.931-8.618l5.807.166Zm-3.014 10.197a150.09 150.09 0 0 0-1.77 8.645c-2.101-.166-4.258-.332-6.443-.554.664-2.854 1.355-5.736 2.13-8.479 1.963.167 4.037.305 6.083.388Zm-1.991 10.003c-.553 3.38-.968 6.595-1.272 9.449l-7.051-.72a337.761 337.761 0 0 1 1.825-9.255c2.184.194 4.369.387 6.498.526Zm-9.706 8.534-5.53-.803c.498-2.771 1.078-5.874 1.77-9.033 1.825.221 3.705.443 5.585.637a335.68 335.68 0 0 0-1.825 9.2Zm-6.885-1.053-5.254-.914a183.045 183.045 0 0 1 2.019-8.867c1.576.305 3.235.554 4.977.804a187.5 187.5 0 0 0-1.742 8.977Zm-.221 1.386a252.247 252.247 0 0 0-1.383 8.867l-5.447-1.247c.193-1.303.719-4.461 1.52-8.562l5.31.942Zm-3.54 9.809 4.563 1.025-.47 8.978-4.784-1.164.691-8.84Zm2.019 11.222 4.645 1.191v9.172h-.055l-4.867-1.302.277-9.061Zm6.028 10.668v-9.089l4.286.499h.028l2.322.277v9.615l-6.636-1.302Zm4.065 2.854H73.8l.47 9.088-6.636-1.136v-7.952Zm3.954-2.079v-8.81l5.143.747s.166.056.25.056h1.99v8.922l-3.733-.471s-.083-.028-.11-.028l-.609-.055h-.11l-2.821-.36Zm7.991 2.383 1.798.222 1.382.194.25 9.282-2.296-.221-5.033-.499-.525-9.532 4.424.554Zm.775-1.302v-9.005l7.797.97v8.95l-7.797-.915Zm8.406 2.383h.083l3.18.36.802 9.338-2.82-.305s-.167-.027-.25-.027h-.11l-5.254-.61-.221-9.282 4.59.526Zm8.82 21.197 1.328 8.313-1.466-.277s-.11-.028-.165-.028l-6.416-.859-1.189-8.119 7.909.97Zm1.909 9.837h.138s.083.055.138.055h5.116l1.382 7.177-6.221-.693-1.798-6.789 1.245.25Zm-.305 7.786s.028.028.056.028l7.438.831 1.576 5.237-6.553-.194h-.304l-1.88-.194-2.13-5.902 1.77.194s0 .028.027 0Zm8.877.72h8.765l1.051 5.625-8.157-.221-1.66-5.404Zm-.387-1.385-1.383-7.038 3.401.166s.056.028.083.028h.055l7.218.36 1.272 6.484h-10.646Zm20.573 1.385v5.653h-8.96l-1.05-5.653h10.01Zm-.25-8.894-6.691-.139-.774-7.592 7.632-.415h.58l.913-.084-.249 8.23h-1.41Zm1.052 1.358h1.3l9.539-.305-.442 6.456h-10.702l-.331-6.124h.636v-.027Zm1.77-1.441.193-8.23 2.571-.138h.028l7.77-.222v8.202l-.968.11h-.083l-9.512.278Zm10.452 1.025 6.996-.831-.581 7.093-6.858.222.443-6.484Zm3.346-11.111v-8.147l2.046-.138s.138 0 .221-.028l4.894-.332 2.185-.139-.58 8.174-8.767.61Zm6.664 18.37 8.295-.775-1.217 5.597-3.207.443h-.11l-4.867.555 1.106-5.82Zm3.428-10.058-1.41.111-1.382.111.636-7.592 1.52-.222 8.434-1.163-1.106 8.174-6.692.581Zm12.803 6.512-6.609 1.164 1.134-6.623 6.803-1.025-1.328 6.484Zm2.157 1.025-2.24 5.958-2.378.526h-.055l-5.199.693 1.217-5.653 8.655-1.524Zm-6.885-8.008 1.078-8.063s.25.111.36.111h.138l8.268-1.469-2.24 8.285-7.604 1.136Zm2.212-9.476.636-8.368 1.88-.25 6.83-.914-1.355 8.119-7.991 1.413Zm8.904-32.253h-.304l-2.96.305-.497-9.477 6.47-.72h.084l1.327-.139.525 9.283-4.645.748Zm1.88 22.444 6.554-1.302-1.19 7.98-6.719 1.413 1.355-8.09Zm6.526 7.87 5.78-.86-1.853 7.87-5.835 1.274 1.908-8.285Zm.277-1.441 1.189-7.98 4.424-.693.83-.111 1.16-.194-1.741 8.09-5.862.888Zm7.438-10.336h-.028l-1.189.166-3.512.5.36-8.618 1.217-.166 3.76-.527h.028l1.161-.166-.912 8.673-.72.11h-.165v.028Zm.968-10.058-.194-9.366 5.199-1.579.553 9.227-4.037 1.524h-.166l-1.355.194Zm2.24 1.025 5.53-1.552-.747 8.008-5.668 2.05.884-8.506Zm4.7-2.743-.58-9.587 4.064-.832.636 9.034-2.516.942h-.138l-.083.055-1.383.388Zm2.738-20.837 4.12-1.385.276-.111 1.798 8.534-4.286 1.69-1.908-8.728Zm1.659-12.83s-.138.029-.221.056l-1.217.167-3.208-8.84 4.231-1.053 3.152 8.535-2.737 1.136Zm-5.171-20.504-3.678-6.927 2.489-.665 3.871 7.038-2.682.554Zm-7.632 1.247-5.281.804-2.931-7.648 4.34-.277 3.872 7.121Zm-5.613 2.217h.221l.498-.083 3.263 8.867-3.153.72-3.511.139-2.987-9.698 5.558.055h.11Zm-4.12 9.726-2.848.221h-.083l-.996.084-3.346.249-1.465-8.978 5.917-.72 2.82 9.144Zm-14.047-10.086-2.296-7.315 7.522-.748 3.097 7.73-8.323.333Zm-2.683-8.673-1.99-7.759 6.94-.498 2.461 7.536-7.41.72Zm-2.46-9.116-3.319-6.235 3.042-.194 1.963-.11h.47l1.576-.14 3.789 6.152-7.522.527Zm5.28-6.761 4.26-.25h1.216l3.705 6.04-5.392.333-3.788-6.123Zm-1.105-1.303-2.102.111-3.816-5.541v-.056h.249l5.199-.415h.027l.11.166 2.849 3.547 1.52 1.911-4.009.25-.027.027Zm-5.503.278-8.406.221-2.516-5.043 8.544-.554 2.378 5.376Zm-8.461-6.567-3.346-5.542h6.608l3.678 5.07-6.94.472Zm-7.55-6.928-1.963-3.962 6.664.25 3.402 3.712h-8.102Zm2.49 1.386 1.603 5.403-5.199.166h-3.484l-1.77-5.57h8.85Zm-3.623 6.955h.027l4.452-.139s.028.083.028.139l2.682 5.403-8.987.305-1.852-5.708h3.65Zm-3.152 6.013h-2.6l-7.798.498-.193-6.511h8.627l1.964 6.013Zm-3.125 1.413 1.134 6.65-7.356.166a.729.729 0 0 0-.525-.194l-2.019.056v-6.152h.885l7.88-.526Zm-19.356-.665 1.189-6.706 8.378-.055h.94l.194 6.567-10.701.194Zm7.687-8.202v.083h-7.107l-1.631-.083 1.272-5.514h8.793l-1.327 5.514Zm-7.964-6.9h-6.636l1.797-3.685h7.19l-1.55 3.685h-.801Zm-8.296.222-1.493.056-6.996.249 2.904-4.489 7.493.25-1.908 3.934Zm-2.571 1.469-2.13 4.682h-8.6l3.817-4.405 6.913-.277Zm-7.853 6.068-2.35 6.595h-7.163s-.138 0-.193.027c-.028 0-.055 0-.083.028h-.028v.028-.111l3.07-6.623 2.322.056h4.425Zm-11.255 6.4v.056l-7.327-.582 5.06-6.124 5.281.139-3.014 6.512Zm-6.83.915 7.494.582-2.931 6.068-3.208-.083-4.756-.139 3.43-6.428h-.029Zm.332 7.925-2.959 7.26-2.129-.056h-.027l-3.982-.277 3.097-7.121 6.028.194h-.028Zm-6.138 8.506c-1.024 2.522-1.991 5.459-2.876 8.618a119.478 119.478 0 0 1-5.475-.527c.995-3.325 2.129-6.29 3.373-8.423l4.978.332Zm-3.263 9.975c-.72 2.771-1.41 5.625-2.047 8.48a171.32 171.32 0 0 1-5.585-.666 136.699 136.699 0 0 1 2.129-8.368c1.659.222 3.54.388 5.503.554Zm-9.015 7.62c-1.714-.194-3.373-.47-4.95-.748a122.524 122.524 0 0 1 2.544-8.562c1.079.36 2.655.665 4.535.942-.802 2.66-1.493 5.514-2.129 8.368Zm-6.332-1.025-3.733-.748s-.028 0-.028-.028h-.027l-.277-.055v-.111l2.323-7.842 4.23.333c-.912 2.743-1.742 5.625-2.488 8.451Zm-.332 1.358a153.814 153.814 0 0 0-1.99 8.867l-4.204-.749 2.13-8.977 4.064.859Zm-2.267 10.252c-.802 4.018-1.3 7.149-1.521 8.507l-3.678-.665 1.05-8.59 4.149.748Zm-3.485 9.56 2.323.415h.11l2.849.693-.747 8.839-2.488-.554s-.166-.056-.277-.056l-2.323-.526.553-8.811Zm2.461 10.89 2.544.581h.166l2.102.554-.277 9.477-2.599-.638h-.055l-1.88-.61v-9.365Zm.25 20.282.193.055.719.194 1.272.388s.11.028.193.028h.222l2.322.665v.11l1.3 8.064-.47-.139-.387-.138-3.871-1.33-1.549-7.897h.055Zm3.013-.665-.774-8.091 4.756 1.191.58 7.98-4.562-1.08Zm5.088 3.186h.139s.083.056.138.056l2.516.582 1.134 8.312-4.314-1.496-.636-4.045-.58-3.741 1.63.332h-.027Zm-1.272 8.618h.056l4.728 1.635 1.52 6.373-3.151-.416-1.106-.25-2.323-7.425.276.083Zm5.53-7.62 6.83 1.801.996 7.897s-.083-.028-.11-.028l-6.582-1.302-1.133-8.368Zm6.997 10.917 1.465 7.592-3.733-.665h-.193l-.498-.11-1.383-.25-1.852-7.758 6.194 1.191Zm1.189-9.338 2.765.471.608.056 4.507.47 1.438 8.12-1.133-.111s-.222-.056-.36-.028l-6.775-.693-1.05-8.285Zm10.037 10.585h.139l5.917.72 1.189 8.12-3.76-.527s-.305 0-.415.083l-2.434-.388-1.797-8.146 1.161.138Zm.083 9.338 2.82.443 1.853 6.983-4.894-.86-2.019-6.926 1.964.332s.193.028.276.028Zm4.259.499 3.705.498 6.498.887 1.825 6.844-1.99-.194s-.139-.027-.222-.027l-7.908-.86-1.908-7.148Zm9.318 9.338 2.13 5.874-6.803-.693c-1.272-2.05-2.35-4.073-3.07-6.013l7.743.832Zm5.337 7.592 2.378 4.904-7.964-1.08a77.323 77.323 0 0 1-3.484-4.766l9.07.942Zm3.125 6.4 2.018 3.824-6.028-.803c-.166-.194-.332-.388-.525-.61-.028 0-.028 0-.055-.055-.94-1.081-1.908-2.19-2.876-3.353l7.466.997Zm-1.549-6.345 5.862.166s-.055.333.028.471l2.461 4.49-5.945-.112-2.406-5.015Zm7.245.194 8.683.25h3.318l.58 4.682h-9.899l-2.682-4.932Zm13.384 7.01h3.567v3.935l-3.567-.083h-.277l-5.116-.11-1.437-3.742h6.83Zm.69-1.385-.69-5.376h9.705l-.47 5.376H124.1Zm5.531-6.761v-5.653h9.18l.139 5.653h-9.319Zm4.867 1.385h6.056l3.594-.166-1.41 4.544-4.618.25s-.083.028-.138.028h-.194l-3.76.581.47-5.237Zm4.286 5.986 9.733-.5-1.935 4.268-7.798.582v-4.35Zm5.42-1.663 1.382-4.572h.028l3.705-.138s.056 0 .083-.028h.194l4.562-.527-1.493 4.988h-3.622l-4.84.277Zm11.448-5.459 8.516-1.08-2.599 5.015-7.41 1.108 1.493-5.043Zm10.203-1.357 2.102-.471s.083 0 .138-.028c.028 0 .055-.028.083-.028h.055l5.614-1.33-5.033 5.708v.056h-.028l-.027.027-5.53 1.109 2.626-5.043Zm3.208-2.134 2.184-5.874 6.36-1.136-2.295 5.514-6.25 1.496Zm8.461-8.396-6.802 1.22h-.194l-1.548.249 1.327-6.428.553-.084h.221l7.55-1.524-1.107 6.54v.027Zm-5.64-6.622 2.267-8.285 6.691-1.44-1.935 8.34-7.024 1.385Zm8.184-.222 5.669-1.247-2.295 6.623h-.028l-4.424 1.136 1.078-6.512Zm7.273-1.635 5.392-1.884-2.212 6.65-3.374 1.109h-.138c-.056.027-.138.055-.221.083l-1.715.526 2.268-6.511v.027Zm2.599-10.861 1.687-7.897s.083-.028.11-.028l5.199-1.413-1.66 7.703-5.336 1.635Zm8.517-9.81 4.452-1.634-1.991 7.73-4.093 1.552 1.632-7.647Zm.94-1.828.774-8.451 3.927-1.441-.858 8.479-3.87 1.413h.027Zm4.01-11.111-.609-8.812h.055l4.12-1.662.056 9.144-2.406.886-1.217.444Zm2.184.693 2.212-.832.249-.083 1.106-.416-1.05 8.535-3.402 1.274.885-8.478Zm2.82-2.522-.055-9.172 2.793-1.108.387 9.089-1.797.692-1.328.499Zm-.525-30.757 1.908-.776h.028l1.99 8.729-1.77.692-2.156-8.645Zm-1.549-.859-3.097-8.395 2.627-.749 3.512 7.897-3.042 1.247Zm-4.037-18.51 1.66-.387 3.843 7.703-1.244.36-4.259-7.675Zm-1.05-1.19-4.231-7.648 1.99-.277 4.148 7.481-1.907.443Zm-3.706-9.117-4.811-6.955 1.631-.194 3.927 7.038-.747.111Zm-1.493.222-2.627.582-.11-.139s-.056-.138-.111-.194l-4.507-6.678 2.626-.387 4.729 6.816Zm-6.747-7.925-4.729-5.93 1.604-.304 5.088 5.957-1.963.277Zm-6.139-7.093h-.055s-.055.055-.083.055h-.028s-.249.166-.304.305l-.166-.166-1.023-1.136c.138-.86.332-1.69.498-2.466l3.373 3.02-2.212.388Zm-.885 1.662s.083 0 .139-.027c.055 0 .11 0 .166-.028l.47-.139 4.617 5.791-.276.111s-.221.056-.304.111l-3.236 1.053-3.041-4.378c.083-.748.138-1.468.249-2.134l1.216-.36Zm-.193 6.761-1.576.056c.027-.749.083-1.469.138-2.162l1.438 2.106Zm.691 18.427-7.521-.084-2.848-7.093 7.355-.665 3.014 7.842Zm-10.867-8.507-2.461-7.481 6.36-.416 3.346 7.204-7.245.693Zm7.106-4.295-1.88-4.045 1.797-.056c.056 1.136.083 2.355.083 3.63v.471Zm-2.93-12.524-4.37.11h-1.244l-4.424-5.513h5.254l4.783 5.403Zm-11.449-6.789h-.055l-5.198.416-3.595-4.96h6l4.508 4.544h-1.66Zm-11.364-5.93-3.485-3.768 6.111-.416 4.397 4.184h-7.023Zm-4.95-5.07h-.083l-4.258-.167s-.028 0-.028-.055l-2.046-2.799h6.11l3.18 2.827-2.875.194Zm-6.084-.25-2.073-.083-8.517-.166-.664-2.106 9.208-.388 2.046 2.743Zm-2.516 1.303 1.991 4.017h-10.978l-.415-4.184 9.402.167Zm-4.258 5.403 1.742 5.57H126.78l.249-5.57h8.434Zm-16.702-6.456h-8.517l2.765-3.547 7.328.582-1.576 2.965Zm-10.259-.083-8.102-.222 5.088-4.046 4.535.582h.083l1.244.111-2.848 3.575Zm-7.77 1.136L97.747 56.9l-7.66-.471 4.397-4.295h.027l6.222.194Zm-4.065 5.902-3.871 4.488-7.715-.221 3.678-4.738h.027l7.881.47Zm-13.3 4.184-3.319-.5 3.623-3.712.083-.083s.138-.166.166-.25c.027-.055.027-.083.027-.138h3.097l-3.677 4.683Zm-1.023 1.274-5.116 6.152-3.318-.25 4.811-6.428 3.623.526ZM72.03 69.785l-2.93-.194 4.7-7.149 3.346.5-5.116 6.843Zm1.715 1.192 4.175.332-3.29 6.151s-.083.222-.083.333l-4.812-.139 4.01-6.677Zm-1.493 8.146-3.097 7.038-1.383-.083-2.627-.139 3.318-6.927h.056l3.733.111Zm-5.116 8.285c-1.217 2.217-2.295 5.126-3.29 8.34-1.88-.277-3.43-.582-4.48-.942.995-2.826 2.101-5.43 3.29-7.647l4.48.249Zm-9.18 7.204-4.12-.332 3.843-7.786 3.595.36c-1.217 2.272-2.323 4.932-3.318 7.758Zm-5.503-.665-1.466-.415a106.886 106.886 0 0 1 3.844-7.87l1.465.499-3.843 7.786Zm-.526 1.303-2.322 7.924-2.074-.415a94.688 94.688 0 0 1 2.903-7.953l1.493.444Zm-2.682 9.254-2.129 9.089-2.019-.527c.194-1.247.692-4.433 2.019-8.977l2.13.415Zm-2.378 10.474-.995 8.534-1.438-.498s-.028-.028-.055-.028l-1.217-.554 1.714-8.008 1.991.554Zm-.553 18.814-.746-.194s.11-.055.193-.055h.028a.68.68 0 0 1 .525.25Zm-3.014.555.138.055h.056l1.576.471-.11 8.645-1.688-.748s-.11-.055-.165-.055l-.996-.444.166-8.396 1.023.444v.028Zm4.093 27.958-1.936-.804s0-.11-.028-.138l-1.908-7.593 2.157.804 1.715 7.73Zm-2.544-9.477-1.051-8.285 2.93 1.275.969 8.036-2.848-1.026Zm1.493-8.7.11-8.84.996.305h.193l2.35.582v9.255l-2.073-.61h-.11l-.056-.055-1.41-.637Zm3.705 20.754 2.323 7.453-1.715-.499-2.903-7.897 2.295.943Zm1.687.775.221.084s.221.221.387.277l3.54 1.08.663.222 2.378 7.592-.442-.11h-.138l-4.176-1.275-.11-.333s-.028-.083-.028-.11l-2.323-7.427h.028Zm2.986 9.477 3.54 6.65-2.074-.61-2.6-6.373 1.134.333Zm1.936.665 1.05.222.305.083h.193l1.272.332.747.166 1.217.277.774.167 3.07 6.927-5.089-1.469-3.567-6.705h.028Zm7.964 3.076 1.327.193 2.102.36h.055l2.986 6.983-3.926-1.468s0-.139-.028-.194l-2.516-5.874Zm10.563 9.587h.11l2.102.415.857.194c.415.776 1.631 2.882 3.374 5.68l-5.393-.997a55.174 55.174 0 0 1-1.05-5.265v-.027Zm4.839.886h.249l.22.084.886.166h.138l5.033.886c.636 1.885 1.603 3.88 2.765 5.902l-5.78-1.302a115.113 115.113 0 0 1-3.511-5.736Zm10.314 8.673a68.026 68.026 0 0 0 3.18 4.572l-5.475-1.191h-.194c-1.161-1.635-2.24-3.214-3.235-4.655l5.724 1.274Zm4.48 6.235c.857 1.08 1.742 2.161 2.626 3.214l-5.447-.776c-.995-1.22-1.99-2.438-2.903-3.657l5.724 1.219Zm4.037 4.821c.193.222.414.443.636.665.857.97 1.714 1.912 2.544 2.799l-5.475-.887a61.169 61.169 0 0 1-3.18-3.353l5.475.776Zm2.903 1.136 5.807.748.636.083 2.13.139 1.354 2.91-6.913-.749s-.138-.138-.221-.194a.486.486 0 0 0-.11-.138c-.83-.86-1.743-1.801-2.683-2.799Zm6.554-.554h-.277l-2.101-3.99 6.36.083h2.599s.027.166.055.25l1.604 4.183-8.24-.526Zm9.484 1.995h.056s.11-.028.138-.083h.138l2.323.055 1.742 3.076-8.876-.443-1.41-2.993 5.89.388Zm4.286.028 5.862.055 3.595.055v2.965h-7.715l-1.742-3.075Zm6.277-1.33v-3.907h9.042v3.713l-5.17.25h-.028l-3.844-.056Zm4.563 1.413 9.927-.444-.968 2.744-8.96.665v-2.965Zm2.599 4.128 6.885-.47h.056l3.428-.36-.912 1.523-10.038.637.581-1.33Zm7.88-1.995 1.024-2.91 2.627-.193h.055l5.669-.443-1.77 2.743-3.595.388s-.193-.028-.276 0l-3.733.415Zm4.757-4.572 1.88-4.184h3.236l4.866-.748-2.267 4.323h-.028l-7.687.61Zm5.917 1.524s.028 0 .028-.027h.028l6.691-1.469-1.023 2.161-5.392.998h-.027l-1.521.277 1.216-1.94Zm15.845-8.728 5.945-1.053-3.954 4.018-.083.083-.442.388-5.144.97 3.65-4.406h.028Zm1.244-1.635 5.033-5.708h-.055s0-.027.055-.027h.028l5.751-1.358-4.452 6.013-6.36 1.08Zm5.807-7.315 2.295-5.486 4.867-1.22s.028 0 .055-.027c.056 0 .11-.028.166-.055l1.521-.471-2.682 5.79-6.222 1.47Zm10.674-7.841 3.622-1.164h.055l.305-.111-3.014 5.985-3.65 1.136 2.682-5.846Zm5.807-1.83 2.71-.83.663-.305-4.175 6.123-.056.111-2.101.748 2.959-5.846Zm2.295-2.66-3.07 1.442h-.027l-.498.166 2.074-6.262.083-.416h.028l3.373-1.025-1.963 6.096Zm3.567-6.594.442-.138s.11-.028.139-.056l2.516-1.552-2.046 6.706-1.853.859h-.055l-1.19.582 2.047-6.4Zm.525-1.8 2.212-7.815 3.014-1.33-2.046 7.204-3.18 1.94Zm2.682-9.533 1.964-7.62 3.207-1.191-2.129 7.481-3.042 1.33Zm6.803-9.448 1.825-.943-1.742 6.983-.138.056-2.019 1.108 2.074-7.204Zm.276-1.69 1.023-8.396 1.77-.665-.857 8.09-1.936.97Zm2.655-21.336-1.88-8.452 1.714-.692 1.493 8.395-1.327.749Zm3.014-12.165-.857.61-1.3.527-2.018-8.867 2.24-1.69a88.836 88.836 0 0 1 1.935 9.42Zm-2.323-10.861-2.378 1.773-3.373-7.62 1.77-.554s.082-.028.11-.028a.987.987 0 0 0 .304-.277l1.023-.942a82.572 82.572 0 0 1 2.544 7.648Zm-3.097-9.061-.857.831-3.844-7.675 1.383-.444a90.691 90.691 0 0 1 3.318 7.288Zm-3.982-8.534-1.493.498-3.982-7.149 1.328-.387a85.307 85.307 0 0 1 4.147 7.038Zm-9.927-14.852c1.798 2.133 3.43 4.35 4.978 6.622l-1.19.333-3.87-6.955h.082Zm-1.05-1.275-2.13.25-5.17-6.069 1.686-.194a95.6 95.6 0 0 1 5.614 6.013Zm-6.969-7.232-1.078.11-4.452-3.961c.083-.277.138-.527.221-.776a69.786 69.786 0 0 1 5.31 4.627ZM172.683 49.06c2.682-2.244 5.696-7.066 7.024-17.263 1.327 10.197 4.341 15.019 7.023 17.263a9.493 9.493 0 0 0 2.323 1.44 10.63 10.63 0 0 0-2.323 1.47c-1.438 1.19-2.958 3.13-4.258 6.234-.194.443-.387.887-.553 1.413-.166.388-.304.831-.443 1.302l.056.083h-.083c-.083.167-.138.36-.194.582-.138.471-.276.97-.415 1.497a34.172 34.172 0 0 0-.47 2.216 16.278 16.278 0 0 0-.331 1.746c-.083.443-.166.914-.222 1.413-.027.194-.083.443-.11.665-.028-.194-.056-.415-.11-.61a46.562 46.562 0 0 0-.388-2.355 32.347 32.347 0 0 0-.58-2.77 46.65 46.65 0 0 0-.333-1.33 31.952 31.952 0 0 0-1.189-3.492c-.165-.388-.331-.776-.497-1.108-1.217-2.66-2.627-4.378-3.927-5.487a15.334 15.334 0 0 0-.802-.61l-.83-.498-.663-.332c.719-.36 1.493-.804 2.295-1.469Zm.249 12.469-1.908.222c-.249.027-.47.221-.58.47h-2.213l-4.867-4.876 4.508-.443 5.06 4.627Zm-4.894-6.04h-.056s-.11.055-.138.083h-.028v-.056l-5.779.554-4.341-4.128 4.148-.499h.027l5.918 4.073h.249v-.028Zm-5.06-5.542-.968.055h-.028c0-.138-.138-.277-.277-.36l-1.686-.942c.995.388 1.99.803 2.958 1.247Zm-9.955-3.63-1.494.138h-.027l-.996-.914c.885.25 1.66.499 2.517.776Zm1.99 1.164 4.95 2.77-3.788.444h-.055l-3.014.194-3.18-2.854 5.088-.554Zm-8.627-2.938c.387.084.747.167 1.134.25h.055l2.102 1.856-1.3.167h-5.475l-1.825-2.273h5.31Zm-7.825-1.302-2.793.222v-.554a50.95 50.95 0 0 1 2.793.332Zm-3.54 1.663h.166l.056-.028 4.064-.305 1.798 2.245h-.609l-9.29.388.774-2.05 2.93-.25h.111Zm-5.337-2.05s.083-.222.056-.306c1.548 0 3.07.111 4.618.222v.804l-2.766.25h-.082l-2.185-.112.36-.859Zm-5.806 2.077 6.636.222-.774 2.106h-7.245l1.383-2.328Zm-3.955-2.078-.857.638-2.654-.25a50.377 50.377 0 0 1 3.511-.388Zm-.884 2.023h3.207l-1.189 2.05-8.157-.637s-.166-.028-.249-.028l-.802-.055 2.102-1.801 5.088.471Zm-8.296-.776h.028l1.244.111-2.13 1.829-4.59-.582h-.248c1.88-.527 3.76-.97 5.696-1.358Zm-9.125 2.3h.055l1.88.25-4.894 3.879s-.166.194-.193.304l-4.093-.11h-.166l-2.571-.555a78.505 78.505 0 0 1 9.982-3.74v-.028Zm-8.793 5.375-4.646 4.517H83.7l6.72-5.015 2.406.498Zm-6.941 1.164-4.314 3.214-.774-.304a83.367 83.367 0 0 1 5.088-2.91ZM79.33 56.79h.056l.885.36h.027l.857.332h.083l.388.194.414.167-3.511 3.574s-.111.139-.111.222h-.028l-4.894-.72a88.289 88.289 0 0 1 5.834-4.13Zm-7.272 5.348h.221l-4.59 7.038-1.687-.167c1.825-2.272 3.872-4.572 6.056-6.871Zm-3.76 8.756 3.705.249-3.844 6.4-4.59-.387 4.728-6.262Zm-5.642 7.564h.166l4.148.416-3.235 6.788-5.282-.554 4.176-6.65h.027Zm-1.41-.416-4.258 6.817-1.466-.471c1.217-2.217 2.627-4.517 4.176-6.872l1.548.526Zm-3.705-1.247.802.278a114.594 114.594 0 0 0-4.176 6.871l-1.355-.443a86.151 86.151 0 0 1 4.729-6.706Zm-5.503 7.925 1.466.471a93.573 93.573 0 0 0-3.872 7.897l-1.908-.554a82.419 82.419 0 0 1 4.314-7.814Zm-4.922 9.089 1.991.582c-1.244 2.964-2.212 5.68-2.931 8.063l-2.406-.471c.968-2.799 2.102-5.514 3.346-8.174Zm-3.788 9.476 2.433.499c-1.244 4.24-1.77 7.315-1.99 8.756l-2.766-1.08a99.063 99.063 0 0 1 2.323-8.175Zm-3.872 39.291 2.849 1.247 1.106 8.396-.47-.139s-.083-.055-.111-.055l-.166-.056s-.055 0-.083-.027l-1.576-.582c-.664-2.882-1.161-5.791-1.549-8.784Zm4.259 18.15a87.514 87.514 0 0 1-2.323-7.787l.525.194 1.964 7.675-.166-.083Zm4.341 10.307a83.648 83.648 0 0 1-3.705-8.534l1.687.665v.083l2.958 8.063-.912-.277h-.028Zm5.365 9.282a76.99 76.99 0 0 1-4.48-7.592l.968.277 1.714.499s0 .083.028.139l2.82 6.982-1.05-.305Zm6.166 8.258c-1.77-2.05-3.401-4.212-4.95-6.457l3.402.998s.027.138.055.194l3.042 5.763-1.549-.498Zm1.742 2.022.774.25-.11-.167.193.194h-.083l1.715 2.411a56.132 56.132 0 0 1-2.489-2.688Zm1.687-.914.083.166s-.138-.138-.221-.194h.138l-3.125-5.846 3.65 1.025h.028l2.793 5.93-3.346-1.081Zm2.489-3.935 5.64 2.106c.25.748.526 1.441.802 2.134a29.154 29.154 0 0 1-.497 2.438l-3.319-1.08-2.626-5.598Zm3.843 7.454 1.77.582c-.11.526-.249.997-.387 1.44l-1.383-2.022Zm.194 5.292s-.056.111-.056.139h-.027s-.194-.139-.277-.25l.36.111Zm13.494 7.897h-.055a6.2 6.2 0 0 0-1.383.748c-.083.056-.166.111-.277.194a8.08 8.08 0 0 0-.58.444c-.083.083-.166.138-.25.221-.414.36-.829.776-1.243 1.275-2.24 2.688-4.48 7.426-5.559 15.766-1.327-10.197-4.34-15.018-7.023-17.262a10.356 10.356 0 0 0-2.35-1.469c.746-.305 1.548-.776 2.35-1.44.83-.693 1.659-1.608 2.489-2.855.47-.72.94-1.551 1.382-2.493.11-.194.194-.388.277-.61.11-.222.193-.416.304-.665.083-.222.138-.388.221-.61.11-.304.249-.665.36-1.025.276-.748.497-1.552.746-2.438.11-.416.221-.86.332-1.33 0-.222.083-.444.138-.665.166-.776.332-1.607.443-2.466.11-.527.193-1.053.249-1.607l.082-.444c.028.166.056.305.083.444.194 1.496.443 2.854.72 4.1.082.416.165.804.276 1.192 0 .055 0 .083.028.138l.027.056c.083.443.194.887.332 1.274a25.38 25.38 0 0 0 1.134 3.38c.055.14.11.278.166.389.22.526.442 1.025.663 1.468.802 1.524 1.632 2.716 2.461 3.63.387.444.775.804 1.162 1.136.166.139.36.277.525.416.498.36.968.637 1.438.859.028 0 .055.028.055.028h.028s.083.055.138.083l.166.083s-.028 0-.055.028v.027Zm.193 1.413c.277-.138.553-.249.83-.332.304.277.608.554.94.831l-1.77-.499Zm-4.203-8.063c-.138-.166-.276-.36-.442-.554l-.166-.25-.885-1.302s-.028-.055-.028-.083a45.097 45.097 0 0 1-.83-2.355l6.001 1.108c.94 1.441 2.019 3.02 3.18 4.683l-6.802-1.247h-.028Zm7.605 10.28.857.388h.11c.194.222.415.36.609.527 0 0 0 .027.027.027.111.056.194.139.305.222.027 0 .055.028.082.028.166.138.305.249.443.36-1.023-.499-1.604-.998-2.433-1.552Zm2.544-.083a29.74 29.74 0 0 1-1.549-1.22l-.11-.082-1.604-1.524c.331 0 .525.055.553.055a.634.634 0 0 0 .663-.277l4.093 1.025c.885 1.08 1.825 2.106 2.793 3.131l-4.757-1.08h-.082v-.028Zm5.972 3.852c-.94-.5-1.88-1.081-2.848-1.746l3.512.831c.415.388.83.804 1.244 1.164l-1.908-.25Zm4.48.637c-.443-.36-.857-.72-1.3-1.136l5.254.831a99.55 99.55 0 0 1 1.687 1.663l-5.641-1.358Zm6.692.443 6.083.637.913 1.718-5.586-.942c-.415-.443-.913-.914-1.41-1.413Zm3.87 3.769a8.857 8.857 0 0 0-.718-.665l4.618.775.304.61c-1.41-.222-2.82-.443-4.203-.72Zm5.863.942-.58-1.164 6.166.388.11 1.33a77.697 77.697 0 0 1-5.696-.554Zm-1.272-2.605h-.028l-.718-1.358 9.346.471h1.161v1.358h-2.267l-7.494-.471Zm17.919 3.214c-1.715.083-3.457.139-5.199.139-1.466 0-2.903-.028-4.341-.111l-.139-1.385h9.983l-.304 1.357Zm.608-2.743h-7.383v-1.358h6.387l1.66-.138-.664 1.496Zm8.517 1.718c-2.517.416-5.088.72-7.688.914l.332-1.496 7.881-.499-.525 1.081Zm1.659-.277.442-.914 1.466-.084h.083l5.005-.581a95.054 95.054 0 0 1-6.996 1.579Zm8.35-3.131-5.115.582.885-1.524 3.816-.416h.193l1.3-.277-1.078 1.635Zm6.83-1.663-4.866 1.192 1.023-1.524 5.392-.97h.194l1.355-.305-3.097 1.635v-.028Zm7.522-3.99-4.7.998 1.188-2.522.83-.166.912-.166h.221s.083-.056.111-.056l4.618-.886-3.152 2.798h-.028Zm3.844-1.08-.775.221 2.793-2.493s.138-.111.194-.167l.442-.388 1.742-.277-4.396 3.104Zm4.369-4.517 3.87-3.935 2.738-.83-4.037 4.35-2.571.415Zm5.115-1.136 4.12-4.433 2.323-.693a71.642 71.642 0 0 1-6.443 5.126Zm7.992-7.038-2.434.748 4.424-5.902 1.798-.665-3.76 5.819h-.028Zm3.677-3.076 2.323-3.574.608-.222.775-.305a57.595 57.595 0 0 1-3.706 4.101Zm5.586-6.345-1.908.748 4.397-6.484 1.963-.886.055-.028.498-.25a76.858 76.858 0 0 1-5.005 6.9Zm8.655-13.023c-.691 1.302-1.41 2.521-2.157 3.768l-1.189.638 2.102-6.928 2.184-1.191-.94 3.713Zm1.078-5.348-1.797.97 2.019-7.01 2.156-1.22-2.046 7.094-.332.166Zm2.047-.97h-.056l2.047-7.065.912-.333a70.733 70.733 0 0 1-2.903 7.398Zm5.613-17.013a76.54 76.54 0 0 1-2.157 7.953l-1.05.387 1.824-7.287.083-.332.166-1.58.83-7.814.387-.36-.277 7.343v.083l.636-.471c.415-2.161.747-4.35.996-6.567l-.221 6.013c.276-.083.608 0 .774.25.221.304.166.747-.138.969l-1.853 1.413Z"/><path d="M173.365 46a.664.664 0 0 1-.467-.182l-5.704-5.722c-.259-.26-.259-.676 0-.91.26-.235.675-.26.908 0l5.704 5.722c.259.26.259.676 0 .91a.624.624 0 0 1-.467.182h.026ZM187.662 46a.666.666 0 0 1-.467-.182c-.26-.26-.26-.675 0-.909l5.711-5.714c.26-.26.675-.26.909 0 .234.26.26.675 0 .909l-5.712 5.714s-.285.182-.467.182h.026ZM193.365 65a.664.664 0 0 1-.467-.182l-5.704-5.722c-.259-.26-.259-.676 0-.91.26-.235.675-.26.908 0l5.704 5.722c.259.26.259.676 0 .91a.624.624 0 0 1-.467.182h.026ZM59.662 222a.666.666 0 0 1-.467-.182c-.26-.26-.26-.675 0-.909l5.711-5.714c.26-.26.675-.26.909 0 .234.26.26.675 0 .909l-5.712 5.714s-.285.182-.467.182h.026ZM87.365 222a.664.664 0 0 1-.467-.182l-5.704-5.722c-.259-.26-.259-.676 0-.91.26-.235.675-.26.908 0l5.704 5.722c.259.26.259.676 0 .91a.624.624 0 0 1-.467.182h.026Z"/></g></g></svg>